Coordinates
version=1
nRows=17
nColumns=36
inDegrees=yes

Units are S.I. units (second, meters, Newtons, ...)
If the header above contains a line with 'inDegrees', this indicates whether rotational values are in degrees (yes) or radians (no).

endheader
time	pelvis_tilt	pelvis_list	pelvis_rotation	pelvis_tx	pelvis_ty	pelvis_tz	hip_flexion_r	hip_adduction_r	hip_rotation_r	knee_angle_r	knee_angle_r_beta	ankle_angle_r	subtalar_angle_r	mtp_angle_r	hip_flexion_l	hip_adduction_l	hip_rotation_l	knee_angle_l	knee_angle_l_beta	ankle_angle_l	subtalar_angle_l	mtp_angle_l	lumbar_extension	lumbar_bending	lumbar_rotation	arm_flex_r	arm_add_r	arm_rot_r	elbow_flex_r	pro_sup_r	arm_flex_l	arm_add_l	arm_rot_l	elbow_flex_l	pro_sup_l
      1.49166670	     -0.36875017	      0.35695927	      0.84308203	     -0.90570466	      1.23791455	     -0.07580381	     -0.76664690	     -1.24423469	      5.23393549	      2.86339212	      0.04997562	      3.92090434	     -6.32916482	     -7.49999987	     -1.41322789	     -1.17940188	      5.21622120	      1.30896405	      0.02284573	      4.05949300	     -1.47549473	     -7.49999987	     -9.59998964	      0.64133703	     -1.89003338	      6.60453079	     -7.29759368	     16.85630437	     31.94247755	     74.16661797	      2.85808414	     -9.54703898	     10.21722621	     38.74247106	     80.83329715
      1.49583330	     -0.32284038	      0.37898672	      0.80776327	     -0.90577185	      1.23808631	     -0.07586490	     -0.85483613	     -1.28327049	      5.27150695	      2.82202021	      0.04925354	      3.71337563	     -6.46951249	     -7.49999987	     -1.50071219	     -1.13914027	      5.32757944	      1.26697904	      0.02211296	      3.82038387	     -1.65325985	     -7.49999987	     -9.65725379	      0.59362556	     -1.76899856	      6.61022580	     -7.40665923	     17.31037322	     31.96550722	     73.42994240	      2.90933824	     -9.70355306	     11.01325312	     38.91445393	     79.67790724
      1.50000000	     -0.38090997	      0.35742757	      0.63768163	     -0.90547832	      1.23369999	     -0.07569170	     -0.76616129	     -1.23978783	      5.78185729	      2.84334444	      0.04962572	      3.38500453	     -7.10707884	     -7.49999987	     -1.43882350	     -1.14340399	      4.82437314	      1.30390088	      0.02275736	      4.07707858	     -0.99999472	     -7.49999987	     -9.58915032	      0.61572901	     -1.55939892	      6.57177888	     -7.34898956	     16.86164652	     31.87126110	     73.00699262	      2.93719580	     -9.60564176	     10.77151527	     38.71522218	     79.09481979
      1.50416670	     -0.45612289	      0.32414600	      0.77959933	     -0.90334680	      1.23506150	     -0.07491621	     -0.78881941	     -1.19779936	      5.36312812	      2.79088015	      0.04871005	      3.55011334	     -6.48799645	     -7.49999987	     -1.34302053	     -1.18896825	      5.01782958	      1.35891678	      0.02371757	      4.22071255	     -0.74535507	     -7.49999987	     -9.36762471	      0.63352742	     -1.68938018	      6.52456758	     -7.29937365	     16.92574570	     31.63756474	     71.82694868	      2.95182414	     -9.56655083	     10.98523071	     38.29747836	     77.38761278
      1.50833330	     -0.34154999	      0.30731295	      0.71409930	     -0.90444724	      1.23191346	     -0.07533717	     -0.88211457	     -1.16152786	      5.62803781	      2.89793911	      0.05057858	      3.70089935	     -6.72041979	     -7.49999987	     -1.50163549	     -1.20273436	      5.35321268	      1.33566417	      0.02331174	      4.16731160	     -1.34779138	     -7.49999987	     -9.62190700	      0.62053124	     -1.76880780	      6.60911682	     -7.34776968	     16.54226582	     31.87990948	     78.35514072	      2.66416494	     -9.61985695	      9.65539601	     39.04083011	     86.30759592
      1.51250000	     -0.36902203	      0.31209016	      0.70609690	     -0.90289500	      1.23597265	     -0.07585753	     -0.90540686	     -1.16674803	      5.62834155	      2.90543238	      0.05070936	      3.70045626	     -6.71988038	     -7.49999987	     -1.49992086	     -1.20829978	      5.35595834	      1.33756767	      0.02334496	      4.16668067	     -1.34646009	     -7.49999987	     -9.61926302	      0.61885318	     -1.76774231	      6.60983679	     -7.34751238	     16.54190658	     31.88003980	     78.35506966	      2.66314045	     -9.62165974	      9.65509532	     39.04028578	     86.30749096
      1.51666670	     -0.24968392	      0.29068510	      0.66789915	     -0.90274517	      1.23232828	     -0.07604595	     -1.08631602	     -1.15240588	      5.65385835	      2.92081457	      0.05097783	      3.76572085	     -6.78440456	     -7.49999987	     -1.69182740	     -1.22884549	      5.28439462	      1.33703069	      0.02333559	      4.38083373	     -1.16173885	     -7.49999987	     -9.63376117	      0.62862441	     -1.69678236	      6.50584192	     -7.36724748	     16.37585262	     31.98246011	     78.11812214	      2.62237750	     -9.67577593	      9.83436679	     39.07770710	     85.85158967
      1.52083330	     -0.23020929	      0.26059495	      0.63515916	     -0.90119290	      1.23054535	     -0.07505256	     -1.16162259	     -1.10925649	      5.65608731	      2.97960460	      0.05200391	      3.90408700	     -6.77855910	     -7.49999987	     -1.76543640	     -1.27375578	      5.20544517	      1.34485799	      0.02347220	      4.59432280	     -1.05826851	     -7.49999987	     -9.52863589	      0.64016402	     -1.63770920	      6.45254278	     -7.29603950	     16.28661578	     31.84160914	     76.16659096	      2.64981574	     -9.60240533	      9.86847196	     38.82579779	     83.20054235
      1.52500000	     -0.24529487	      0.24063958	      0.64049776	     -0.89882527	      1.23142713	     -0.07523533	     -1.26257041	     -1.08813047	      5.58706987	      2.98271688	      0.05205823	      3.94146898	     -6.86388541	     -7.49999987	     -1.83915764	     -1.30456395	      5.39582898	      1.31314204	      0.02291865	      4.50677031	     -1.42790890	     -7.49999987	     -9.40272823	      0.63983374	     -1.73487031	      6.38886295	     -7.32972104	     16.31089978	     31.85877191	     78.36237767	      2.34116564	     -9.61666400	      9.21698526	     39.17121074	     86.18664894
      1.52916670	     -0.25453330	      0.20589523	      0.57586647	     -0.89959097	      1.23138052	     -0.07658901	     -1.30330907	     -1.08343240	      5.52512944	      3.04271941	      0.05310547	      4.09823255	     -6.81963135	     -7.49999987	     -1.91376857	     -1.33463916	      5.40201205	      1.27920057	      0.02232626	      4.67861160	     -1.43038236	     -7.49999987	     -9.27863807	      0.70630221	     -1.66520332	      6.31537976	     -7.39471598	     16.43127204	     31.85967927	     76.91381109	      2.31113745	     -9.63975266	      9.64548228	     39.06416976	     84.17262591
      1.53333330	     -0.27720095	      0.18595131	      0.54900049	     -0.89913789	      1.23140857	     -0.07582307	     -1.35476125	     -1.06882473	      5.50630276	      3.02652777	      0.05282287	      4.15948447	     -6.85883206	     -7.49999987	     -1.96274627	     -1.35544903	      5.39172934	      1.24080370	      0.02165611	      4.83294020	     -1.30512331	     -7.49999987	     -9.10688754	      0.73349169	     -1.64297126	      6.25071691	     -7.35497864	     16.48640439	     31.78780449	     74.24926342	      2.30737337	     -9.60575477	      9.91416283	     38.83425253	     80.66309922
      1.53750000	     -0.39733905	      0.19143735	      0.51625761	     -0.89914125	      1.23169845	     -0.07534734	     -1.24497870	     -1.07071013	      5.64109946	      3.01593611	      0.05263802	      4.04080881	     -7.30636183	     -7.49999987	     -1.90295312	     -1.35598654	      5.46085977	      1.24216206	      0.02167982	      4.79035559	     -1.69657088	     -7.49999987	     -8.89261381	      0.71468965	     -1.60247648	      6.25663454	     -7.42834511	     16.61111010	     31.66901403	     77.92992724	      2.22665240	     -9.67886444	      9.59845725	     38.82759310	     85.81406768
      1.54166670	     -0.40026998	      0.21502170	      0.52733922	     -0.89895003	      1.23242284	     -0.07503550	     -1.29759141	     -1.08481435	      5.68212945	      2.92879334	      0.05111709	      3.93200586	     -7.49136269	     -7.49999987	     -1.96421550	     -1.36483295	      5.49477927	      1.21162167	      0.02114679	      4.63977961	     -1.87079624	     -7.49999987	     -8.83358241	      0.66554850	     -1.59425934	      6.20962589	     -7.42169713	     16.86118022	     31.75468780	     75.91026868	      2.24210629	     -9.84935992	     10.27869148	     38.91718292	     83.00399702
      1.54583330	     -0.50609177	      0.24534472	      0.53749387	     -0.89980141	      1.23257282	     -0.07639848	     -1.16091850	     -1.13507575	      5.68687744	      2.92229080	      0.05100360	      3.90928531	     -7.51676436	     -7.49999987	     -1.88156764	     -1.32160962	      5.47224055	      1.20189646	      0.02097705	      4.56077181	     -2.06992246	     -7.49999987	     -8.67702774	      0.64168740	     -1.56916165	      6.20120222	     -7.37798331	     16.80985424	     31.63234355	     74.56749170	      2.33346133	     -9.84059794	     10.44122205	     38.70224754	     81.17697623
      1.55000000	     -0.63766013	      0.28216556	      0.60243964	     -0.89920718	      1.23311512	     -0.07613213	     -1.02098351	     -1.18685939	      5.58507239	      2.84257989	      0.04961238	      3.96106739	     -7.28665048	     -7.49999987	     -1.76800871	     -1.27012550	      5.62286704	      1.17655073	      0.02053468	      4.36320616	     -2.39344830	     -7.49999987	     -8.51896764	      0.61427801	     -1.63196778	      6.19884624	     -7.36413497	     16.47070866	     31.58279377	     77.91963194	      2.27111549	     -9.81960759	      9.81141465	     38.73041878	     85.78013805
      1.55416670	     -0.69600298	      0.28992376	      0.64879506	     -0.89961388	      1.23881391	     -0.07500844	     -0.93022495	     -1.19149369	      5.59734088	      2.82156492	      0.04924560	      3.92179325	     -7.24480405	     -7.49999987	     -1.68504859	     -1.26325751	      5.59060135	      1.19064688	      0.02078071	      4.33464253	     -2.38121406	     -7.49999987	     -8.56068696	      0.61880527	     -1.64428071	      6.24799221	     -7.35164817	     16.46138233	     31.60049286	     77.91382746	      2.33921570	     -9.84475553	      9.79949029	     38.74116769	     85.77081102
      1.55833330	     -0.75274421	      0.30727155	      0.64426385	     -0.89911226	      1.23917120	     -0.07592481	     -0.97257905	     -1.22674176	      5.64861830	      2.56023781	      0.04468458	      3.61115075	     -7.08117290	     -7.49999987	     -1.68534292	     -1.23345721	      5.60129178	      1.07014546	      0.01867756	      3.90208770	     -2.31277663	     -7.49999987	     -8.43839943	      0.61912350	     -1.65331608	      6.29285850	     -7.20800590	     16.22701854	     31.40849314	     75.43090916	      2.46145272	     -9.75726878	      9.88514890	     38.36773609	     82.45888773
